<?xml version="1.0" encoding="UTF-8" standalone="no"?>
<svg width="283px" height="216px" viewBox="0 0 283 216" version="1.1" xmlns="http://www.w3.org/2000/svg" xmlns:xlink="http://www.w3.org/1999/xlink">
    <!-- Generator: sketchtool 3.6.1 (26313) - http://www.bohemiancoding.com/sketch -->
    <title>Error Icon</title>
    <desc>Created with sketchtool.</desc>
    <defs>
        <path id="path-1" d="M282.800411,0.119215288 L282.800411,216 L0.0595789474,216 L0.0595789474,0.119215288 L282.800411,0.119215288 L282.800411,0.119215288 Z"></path>
    </defs>
    <g id="Welcome" stroke="none" stroke-width="1" fill="none" fill-rule="evenodd">
        <g id="Error-message-500" transform="translate(-371.000000, -379.000000)">
            <g id="Error-Icon" transform="translate(371.000000, 379.000000)">
                <g id="Error-message-icon">
                    <mask id="mask-2" fill="white">
                        <use xlink:href="#path-1"></use>
                    </mask>
                    <g id="Clip-2"></g>
                    <path d="M103.196695,163.70422 C102.246411,163.70422 101.29414,163.458495 100.437196,162.963083 L53.8702912,135.986862 L45.4061088,137.947706 C44.8023754,138.088404 39.3211123,139.27145 33.0613509,137.773321 C24.2516105,135.663853 18.1715789,129.218532 15.9393544,119.624367 L0.577915789,53.5818716 C0.436912281,52.9794495 -0.749701754,47.5110826 0.752680702,41.2639266 C2.86773333,32.4743119 9.32807719,26.4074862 18.9421333,24.1811009 L120.344509,0.695559633 C120.949235,0.55387156 126.428512,-0.628183486 132.688274,0.87093578 C141.496028,2.9813945 147.57606,9.4267156 149.807291,19.0198899 L157.403607,50.6638899 L155.084993,49.2073761 L153.719642,51.4783486 L151.527137,49.9098716 L150.037663,52.3869358 L147.927575,50.776844 L146.713158,53.2192294 L139.107905,21.537578 C136.221305,9.12451376 125.013512,10.9070092 122.796182,11.3875596 L21.4275684,34.8651743 C9.02422456,37.737578 10.809607,48.924 11.2931895,51.1365138 L26.6466842,117.14433 C29.5263333,129.520734 40.7380982,127.741211 42.9554281,127.255706 L53.5038807,124.811339 C54.8642667,124.496257 56.2971404,124.711266 57.506593,125.410789 L94.9718211,147.113835 L89.1718105,122.181688 C88.8421404,120.764807 89.090386,119.275596 89.8619333,118.041028 C90.6324877,116.80745 91.863786,115.928587 93.2827579,115.599633 L144.323049,103.779083 C157.157347,100.806606 154.776175,88.8919266 154.462393,87.542422 L151.708853,75.7070092 L154.588502,77.5291376 L155.581484,74.804367 L158.146358,76.5799266 L159.098628,74.0612477 L161.291133,75.5881101 L162.416182,73.2269725 L165.169723,85.0623853 C167.399961,94.6545688 164.352498,110.400771 146.808484,114.463156 L101.122354,125.045174 L108.550856,156.980477 C109.046354,159.109761 108.226151,161.331193 106.463607,162.630165 C105.497435,163.34356 104.348554,163.70422 103.196695,163.70422" id="Fill-1" fill="#DEE0DD" mask="url(#mask-2)"></path>
                    <path d="M169.708646,216 C168.384007,216 167.074263,215.522422 166.046526,214.606899 C164.412077,213.150385 163.8004,210.86455 164.491516,208.788771 L174.840379,177.672881 L130.327954,162.931376 C120.960158,159.829101 115.088653,153.193541 113.795789,144.246385 C112.877281,137.888257 114.564358,132.552661 114.759975,131.965101 L135.628495,69.2210642 L136.983916,71.9042202 L139.241958,70.4298716 L140.303456,72.8643303 L142.724347,71.3463853 L143.872235,73.8234495 L146.061761,72.6760734 L125.193242,135.419119 C124.517021,137.545431 121.705888,148.519817 133.790484,152.521761 L183.519046,168.990275 C186.399688,169.94444 187.960656,173.047706 187.004414,175.922092 L178.924516,200.215156 L218.238677,182.054312 C219.507709,181.466752 220.951505,181.386495 222.27813,181.825431 L232.590253,185.239817 C234.7202,185.913578 245.72046,188.717615 249.731116,176.661248 L271.131874,112.314055 C271.807102,110.188734 274.618235,99.2143486 262.533639,95.2124037 L163.73387,62.4943486 L166.504291,61.1805138 L165.222351,58.7034495 L167.745519,57.8771009 L166.090218,55.6071193 L168.945042,54.9462385 L167.195407,52.0837431 L265.995175,84.8017982 C275.363965,87.9050642 281.234477,94.5406239 282.528333,103.48778 C283.447835,109.844917 281.759765,115.181505 281.564147,115.769064 L260.162396,180.116257 C254.489488,197.176294 238.494526,198.754679 229.128716,195.649431 L220.881996,192.918716 L172.016337,215.492697 C171.278551,215.833541 170.491116,216 169.708646,216" id="Fill-3" fill="#C7C7C2" mask="url(#mask-2)"></path>
                </g>
            </g>
        </g>
    </g>
</svg>